HIERARCHY
ROOT joint_Root
{
	OFFSET 0.0 0.0 0.0
	CHANNELS 6 Xposition Yposition Zposition Zrotation Xrotation Yrotation 
	JOINT Hips
	{
		OFFSET 4.5925 91.4895 -427.239
		CHANNELS 6 Xposition Yposition Zposition Zrotation Xrotation Yrotation 
		JOINT Spine
		{
			OFFSET 15.7357 0.0 0.0
			CHANNELS 6 Xposition Yposition Zposition Zrotation Xrotation Yrotation 
			JOINT Chest
			{
				OFFSET 8.98455 -0.406207 0.0
				CHANNELS 6 Xposition Yposition Zposition Zrotation Xrotation Yrotation 
				JOINT Neck
				{
					OFFSET 16.3773 0.0 0.0
					CHANNELS 6 Xposition Yposition Zposition Zrotation Xrotation Yrotation 
					JOINT Head
					{
						OFFSET 6.45672 0.0 0.0
						CHANNELS 6 Xposition Yposition Zposition Zrotation Xrotation Yrotation 
						End Site
						{
							OFFSET 0.0 0.0 0.0
						}
					}
				}
				JOINT Shoulder_L
				{
					OFFSET 12.9942 -0.242716 4.98039
					CHANNELS 6 Xposition Yposition Zposition Zrotation Xrotation Yrotation 
					JOINT UpperArm_L
					{
						OFFSET 5.34809 0.0 0.0
						CHANNELS 6 Xposition Yposition Zposition Zrotation Xrotation Yrotation 
						JOINT LowerArm_L
						{
							OFFSET 24.3286 1.87007e-05 0.0
							CHANNELS 6 Xposition Yposition Zposition Zrotation Xrotation Yrotation 
							JOINT Hand_L
							{
								OFFSET 22.2916 0.0 0.0
								CHANNELS 6 Xposition Yposition Zposition Zrotation Xrotation Yrotation 
								End Site
								{
									OFFSET 0.0 0.0 0.0
								}
							}
						}
					}
				}
				JOINT Shoulder_R
				{
					OFFSET 12.9945 -0.242716 -4.98039
					CHANNELS 6 Xposition Yposition Zposition Zrotation Xrotation Yrotation 
					JOINT UpperArm_R
					{
						OFFSET -5.34813 0.0 0.0
						CHANNELS 6 Xposition Yposition Zposition Zrotation Xrotation Yrotation 
						JOINT LowerArm_R
						{
							OFFSET -24.3289 0.000322201 0.0
							CHANNELS 6 Xposition Yposition Zposition Zrotation Xrotation Yrotation 
							JOINT Hand_R
							{
								OFFSET -22.2915 -0.000108084 0.0
								CHANNELS 6 Xposition Yposition Zposition Zrotation Xrotation Yrotation 
								End Site
								{
									OFFSET 0.0 0.0 0.0
								}
							}
						}
					}
				}
			}
		}
		JOINT UpperLeg_L
		{
			OFFSET -2.19248 -6.46944 0.0
			CHANNELS 6 Xposition Yposition Zposition Zrotation Xrotation Yrotation 
			JOINT LowerLeg_L
			{
				OFFSET 39.0811 0.0 -1.23785e-05
				CHANNELS 6 Xposition Yposition Zposition Zrotation Xrotation Yrotation 
				JOINT Foot_L
				{
					OFFSET 40.9854 0.0 -1.26872e-05
					CHANNELS 6 Xposition Yposition Zposition Zrotation Xrotation Yrotation 
					JOINT Toes_L
					{
						OFFSET 11.7543 0.0 0.0
						CHANNELS 6 Xposition Yposition Zposition Zrotation Xrotation Yrotation 
						End Site
						{
							OFFSET 0.0 0.0 0.0
						}
					}
				}
			}
		}
		JOINT UpperLeg_R
		{
			OFFSET -2.19251 6.46944 0.0
			CHANNELS 6 Xposition Yposition Zposition Zrotation Xrotation Yrotation 
			JOINT LowerLeg_R
			{
				OFFSET -39.0811 -0.00228153 -0.0401928
				CHANNELS 6 Xposition Yposition Zposition Zrotation Xrotation Yrotation 
				JOINT Foot_R
				{
					OFFSET -40.9854 0.0 0.0
					CHANNELS 6 Xposition Yposition Zposition Zrotation Xrotation Yrotation 
					JOINT Toes_R
					{
						OFFSET -11.7543 0.0 0.0
						CHANNELS 6 Xposition Yposition Zposition Zrotation Xrotation Yrotation 
						End Site
						{
							OFFSET 0.0 0.0 0.0
						}
					}
				}
			}
		}
	}
}
MOTION
Frames:	4
Frame Time:	0.0333333
0.000000 0.000000 0.000000 0.000000 0.000000 -0.000000 -8.735020 89.822100 1.009280 85.667900 -3.969510 12.999300 15.735700 0.000005 -0.000001 73.429500 82.724100 -69.547600 8.984550 -0.406207 -0.000000 6.348410 -4.185840 7.990440 16.377300 -0.000001 -0.000001 27.560400 -9.645110 0.070206 6.456720 -0.000001 -0.000000 16.694000 -10.029100 15.660200 12.994200 -0.242716 4.980390 -87.245200 -6.235310 -66.105700 5.348090 -0.000007 -0.000001 -67.232100 -48.094200 -105.545000 24.328600 0.000019 0.000005 14.541600 14.892600 -45.264400 22.291600 -0.000001 0.000005 19.542400 5.305900 -0.093663 12.994500 -0.242716 -4.980390 87.962800 10.373600 -78.825300 -5.348130 -0.000001 -0.000004 -60.741100 32.253900 -7.328610 -24.328900 0.000322 -0.000009 2.074990 6.165520 -18.650400 -22.291500 -0.000108 -0.000004 14.199300 5.418420 -3.545700 -2.192480 -6.469440 -0.000000 -163.967000 -10.702000 3.596390 39.081100 -0.000007 -0.000012 -0.301233 0.454867 33.514900 40.985400 -0.000006 -0.000013 -4.594660 8.854520 -72.412000 11.754300 -0.000000 0.000003 -0.000098 -0.001007 -16.616200 -2.192510 6.469440 -0.000001 179.438000 26.076500 -171.881000 -39.081100 -0.002282 -0.040193 -0.215361 0.387770 29.419000 -40.985400 0.000008 0.000006 9.672800 15.694800 -75.059100 -11.754300 -0.000006 -0.000006 -0.000371 -0.006020 -16.818300
0.000000 0.000000 0.000000 0.000000 0.000000 -0.000000 -8.794780 89.824400 0.929501 85.697800 -3.964140 12.955800 15.735700 0.000005 -0.000001 73.499900 82.737100 -69.605500 8.984550 -0.406207 -0.000000 6.328260 -4.162340 8.013320 16.377300 -0.000001 -0.000001 27.436900 -9.698150 0.173285 6.456720 -0.000001 -0.000000 16.599500 -10.174800 15.867900 12.994200 -0.242716 4.980390 -87.259700 -6.205870 -66.117700 5.348090 -0.000007 -0.000001 -67.535000 -48.258900 -105.779000 24.328600 0.000019 0.000005 14.413800 14.865800 -45.051000 22.291600 -0.000001 0.000005 19.573400 5.304140 -0.043994 12.994500 -0.242716 -4.980390 87.959800 10.367600 -78.803400 -5.348130 -0.000001 -0.000004 -60.654100 32.233400 -7.487670 -24.328900 0.000322 -0.000009 2.084280 6.192890 -18.651400 -22.291500 -0.000108 -0.000004 14.065900 5.417190 -3.504660 -2.192480 -6.469440 -0.000000 -163.972000 -10.712600 3.491500 39.081100 -0.000007 -0.000012 -0.304452 0.459948 33.502200 40.985400 -0.000006 -0.000013 -4.648570 8.829320 -72.328600 11.754300 -0.000000 0.000003 -0.000089 -0.000933 -16.613400 -2.192510 6.469440 -0.000001 179.493000 26.167200 -172.024000 -39.081100 -0.002282 -0.040193 -0.208707 0.375309 29.462200 -40.985400 0.000008 0.000006 9.762630 15.736800 -75.043500 -11.754300 -0.000006 -0.000006 -0.000344 -0.005609 -16.801600
0.000000 0.000000 0.000000 0.000000 0.000000 -0.000000 -8.863830 89.829100 0.847168 85.719500 -3.938180 13.043200 15.735700 0.000005 -0.000001 73.553200 82.707900 -69.651900 8.984550 -0.406207 -0.000000 6.388440 -4.163700 8.029440 16.377300 -0.000001 -0.000001 27.386800 -9.732980 0.264785 6.456720 -0.000001 -0.000000 16.522700 -10.237900 16.083400 12.994200 -0.242716 4.980390 -87.252900 -6.217580 -66.104800 5.348090 -0.000007 -0.000001 -67.953200 -48.307900 -106.001000 24.328600 0.000019 0.000005 14.220700 14.716500 -44.930700 22.291600 -0.000001 0.000005 19.580600 5.306980 -0.124326 12.994500 -0.242716 -4.980390 87.954500 10.404900 -78.813600 -5.348130 -0.000001 -0.000004 -60.578200 32.198700 -7.573150 -24.328900 0.000322 -0.000009 2.083890 6.205890 -18.611900 -22.291500 -0.000108 -0.000004 14.137300 5.416950 -3.496780 -2.192480 -6.469440 -0.000000 -163.938000 -10.692100 3.527830 39.081100 -0.000007 -0.000012 -0.298028 0.450801 33.469500 40.985400 -0.000006 -0.000013 -4.676250 8.901260 -72.242100 11.754300 -0.000000 0.000003 -0.000090 -0.000944 -16.613900 -2.192510 6.469440 -0.000001 179.483000 26.212600 -171.966000 -39.081100 -0.002282 -0.040193 -0.213213 0.383433 29.452800 -40.985400 0.000008 0.000006 9.812220 15.716400 -75.017700 -11.754300 -0.000006 -0.000006 -0.000500 -0.008033 -16.900100
0.000000 0.000000 0.000000 0.000000 0.000000 -0.000000 -8.942390 89.815700 0.770096 85.688500 -3.887140 13.042000 15.735700 0.000005 -0.000001 73.531800 82.687200 -69.597400 8.984550 -0.406207 -0.000000 6.428770 -4.179500 8.098040 16.377300 -0.000001 -0.000001 27.345300 -9.771010 0.340249 6.456720 -0.000001 -0.000000 16.480800 -10.295700 16.290800 12.994200 -0.242716 4.980390 -87.261100 -6.192210 -66.082000 5.348090 -0.000007 -0.000001 -68.282300 -48.409700 -106.096000 24.328600 0.000019 0.000005 14.070000 14.527600 -44.974700 22.291600 -0.000001 0.000005 19.653000 5.302910 -0.009482 12.994500 -0.242716 -4.980390 87.949800 10.426500 -78.810800 -5.348130 -0.000001 -0.000004 -60.496200 32.208000 -7.670360 -24.328900 0.000322 -0.000009 2.068440 6.171900 -18.577700 -22.291500 -0.000108 -0.000004 14.172300 5.416110 -3.468360 -2.192480 -6.469440 -0.000000 -163.868000 -10.624200 3.413850 39.081100 -0.000007 -0.000012 -0.304351 0.459093 33.542600 40.985400 -0.000006 -0.000013 -4.730910 8.913820 -72.205800 11.754300 -0.000000 0.000003 -0.000109 -0.001110 -16.620100 -2.192510 6.469440 -0.000001 179.608000 26.227800 -172.061000 -39.081100 -0.002282 -0.040193 -0.212161 0.380613 29.514400 -40.985400 0.000008 0.000006 9.870280 15.643200 -75.016800 -11.754300 -0.000006 -0.000006 -0.000527 -0.008443 -16.916800
